<?xml version="1.0" encoding="UTF-8" standalone="no"?>
<svg
   xmlns:dc="http://purl.org/dc/elements/1.1/"
   xmlns:cc="http://creativecommons.org/ns#"
   xmlns:rdf="http://www.w3.org/1999/02/22-rdf-syntax-ns#"
   xmlns:svg="http://www.w3.org/2000/svg"
   xmlns="http://www.w3.org/2000/svg"
   xmlns:sodipodi="http://sodipodi.sourceforge.net/DTD/sodipodi-0.dtd"
   xmlns:inkscape="http://www.inkscape.org/namespaces/inkscape"
   version="1.0"
   width="1726.000000pt"
   height="1255.000000pt"
   viewBox="0 0 1726.000000 1255.000000"
   preserveAspectRatio="xMidYMid meet"
   id="svg30"
   sodipodi:docname="logo+marcaNS-blanco.svg"
   inkscape:version="0.92.1 r15371">
  <defs
     id="defs34" />
  <sodipodi:namedview
     pagecolor="#ffffff"
     bordercolor="#666666"
     borderopacity="1"
     objecttolerance="10"
     gridtolerance="10"
     guidetolerance="10"
     inkscape:pageopacity="0"
     inkscape:pageshadow="2"
     inkscape:window-width="1366"
     inkscape:window-height="706"
     id="namedview32"
     showgrid="false"
     inkscape:zoom="0.14502654"
     inkscape:cx="-130.5241"
     inkscape:cy="758.83765"
     inkscape:window-x="0"
     inkscape:window-y="25"
     inkscape:window-maximized="1"
     inkscape:current-layer="g28" />
  <metadata
     id="metadata2">
Created by potrace 1.15, written by Peter Selinger 2001-2017
<rdf:RDF>
  <cc:Work
     rdf:about="">
    <dc:format>image/svg+xml</dc:format>
    <dc:type
       rdf:resource="http://purl.org/dc/dcmitype/StillImage" />
    <dc:title></dc:title>
  </cc:Work>
</rdf:RDF>
</metadata>
  <g
     transform="translate(0.000000,1255.000000) scale(0.100000,-0.100000)"
     fill="#000000"
     stroke="none"
     id="g28">
    <path
       d="M3930 7850 l0 -4690 4700 0 4700 0 0 4690 0 4690 -4700 0 -4700 0 0 -4690z m3628 2638 l3 -138 134 0 135 0 0 -135 0 -134 138 -3 137 -3 3 -137 3 -138 134 0 135 0 0 -135 0 -135 135 0 134 0 3 -137 3 -138 138 -3 137 -3 0 -134 0 -135 135 0 134 0 3 -137 3 -138 138 -3 137 -3 0 -134 0 -135 135 0 135 0 0 1100 0 1100 413 -2 412 -3 0 -1785 0 -1785 -412 -3 -413 -2 0 140 0 140 -140 0 -140 0 0 135 0 135 -135 0 -135 0 0 140 0 140 -135 0 -135 0 0 135 0 135 -140 0 -140 0 0 140 0 140 -135 0 -135 0 0 135 0 135 -140 0 -140 0 0 135 0 135 -135 0 -135 0 0 140 0 140 -135 0 -135 0 -2 -1097 -3 -1098 -412 -3 -413 -2 0 1790 0 1790 413 -2 412 -3 3 -137z m2 -3983 l0 -275 270 0 270 0 0 140 0 140 275 0 275 0 0 -275 0 -275 140 0 140 0 0 -275 0 -275 -1100 0 -1100 0 0 685 0 685 415 0 415 0 0 -275z m3020 -410 l0 -685 -555 0 -555 0 0 275 0 275 -135 0 -135 0 0 270 0 270 -135 0 -135 0 0 140 0 140 825 0 825 0 0 -685z"
       id="path4"
       style="fill:#ffffff;fill-opacity:1" />
    <path
       d="M15818 2370 c-175 -32 -309 -114 -394 -242 -76 -114 -124 -285 -124 -444 l0 -54 -105 0 -105 0 0 -180 0 -180 105 0 105 0 0 -615 0 -615 245 0 245 0 0 615 0 615 160 0 160 0 -2 178 -3 177 -159 3 -158 3 4 92 c6 134 51 218 135 253 36 16 158 18 215 5 l36 -8 6 146 c4 80 9 164 12 187 l5 41 -58 12 c-76 16 -265 22 -325 11z"
       id="path6"
       style="fill:#ffffff;fill-opacity:1" />
    <path
       d="M9270 1875 l0 -466 -68 68 c-119 119 -261 170 -450 160 -278 -14 -498 -178 -602 -448 -55 -143 -64 -198 -64 -384 1 -200 17 -275 88 -420 87 -175 208 -284 386 -347 79 -28 253 -35 344 -14 143 34 274 124 348 239 l33 52 12 -135 c6 -74 12 -136 12 -137 1 -2 58 -3 127 -3 l126 0 -6 32 c-4 18 -10 536 -13 1151 l-5 1117 -134 0 -134 0 0 -465z m-248 -498 c138 -68 220 -187 238 -348 13 -108 13 -281 0 -388 -30 -262 -247 -439 -493 -401 -190 28 -322 161 -378 379 -23 88 -27 263 -9 363 33 182 129 326 262 394 70 35 112 43 214 41 83 -3 99 -6 166 -40z"
       id="path8"
       style="fill:#ffffff;fill-opacity:1" />
    <path
       d="M2857 2218 c-24 -40 -87 -144 -140 -230 l-97 -158 99 0 99 0 178 208 c97 114 186 217 197 230 l20 22 -156 0 -156 0 -44 -72z"
       id="path10"
       style="fill:#ffffff;fill-opacity:1" />
    <path
       d="M12215 2246 c-159 -26 -282 -74 -389 -150 -232 -165 -318 -471 -203 -719 84 -179 260 -311 567 -425 277 -103 357 -176 348 -316 -5 -87 -39 -136 -122 -176 -155 -76 -420 -58 -679 47 -48 19 -89 34 -91 32 -4 -5 -96 -376 -96 -388 0 -15 143 -70 252 -96 151 -35 293 -49 438 -41 406 21 668 182 771 473 29 82 37 255 15 346 -31 130 -100 238 -208 323 -98 76 -170 114 -348 185 -265 104 -345 154 -381 234 -23 49 -24 85 -3 133 38 93 129 141 280 149 118 7 268 -17 389 -62 49 -19 90 -33 91 -32 1 1 25 87 54 191 51 183 53 189 34 203 -26 19 -155 59 -255 78 -114 22 -362 28 -464 11z"
       id="path12"
       style="fill:#ffffff;fill-opacity:1" />
    <path
       d="M10 1135 l0 -1095 130 0 130 0 0 683 c0 375 -5 785 -10 911 -5 127 -8 232 -5 234 2 2 20 -29 41 -69 104 -207 207 -381 667 -1116 l402 -643 143 0 142 0 0 1095 0 1096 -132 -3 -133 -3 -3 -380 c-3 -383 13 -1178 27 -1335 4 -47 7 -86 6 -88 -1 -1 -44 75 -96 170 -136 253 -243 430 -644 1067 l-360 571 -152 0 -153 0 0 -1095z"
       id="path14"
       style="fill:#ffffff;fill-opacity:1" />
    <path
       d="M16645 1986 l-220 -62 -3 -147 -3 -147 -104 0 -105 0 0 -180 0 -180 104 0 104 0 4 -422 c5 -456 6 -472 63 -595 69 -152 240 -243 455 -243 83 1 201 14 261 30 l39 11 0 183 0 183 -97 -4 c-88 -4 -103 -2 -143 19 -34 17 -51 35 -70 73 l-25 50 -3 358 -3 357 175 0 176 0 0 180 0 180 -175 0 -175 0 0 210 c0 194 -1 210 -17 209 -10 -1 -117 -29 -238 -63z"
       id="path16"
       style="fill:#ffffff;fill-opacity:1" />
    <path
       d="M14070 1663 c-143 -7 -270 -41 -393 -105 -113 -58 -236 -181 -294 -293 -67 -130 -94 -236 -100 -400 -4 -116 -2 -157 15 -236 61 -293 248 -497 537 -585 83 -25 104 -28 260 -28 145 0 182 3 250 22 170 47 331 152 422 275 105 143 152 285 160 484 12 283 -55 474 -226 643 -128 127 -285 201 -461 215 -36 3 -76 7 -90 8 -14 1 -50 1 -80 0z m161 -379 c82 -41 145 -134 175 -261 21 -85 23 -276 5 -358 -44 -196 -151 -305 -300 -305 -200 0 -324 181 -323 470 0 275 101 453 271 479 64 10 118 2 172 -25z"
       id="path18"
       style="fill:#ffffff;fill-opacity:1" />
    <path
       d="M2629 1625 c-143 -28 -270 -96 -375 -200 -162 -161 -247 -407 -230 -670 22 -355 207 -611 514 -713 69 -23 93 -26 227 -26 177 -1 233 11 375 80 80 40 109 61 180 133 97 99 140 166 181 285 39 112 53 224 46 376 -11 266 -112 475 -295 610 -162 120 -405 168 -623 125z m346 -234 c178 -88 286 -297 286 -556 0 -60 -4 -132 -10 -160 -56 -288 -252 -469 -489 -452 -100 7 -138 19 -211 68 -99 66 -177 184 -218 331 -24 89 -24 318 1 408 29 107 81 205 144 269 97 99 184 132 334 127 86 -3 105 -7 163 -35z"
       id="path20"
       style="fill:#ffffff;fill-opacity:1" />
    <path
       d="M4520 1624 c-93 -25 -161 -64 -231 -133 -36 -36 -77 -82 -91 -101 l-25 -34 -7 94 c-4 52 -10 110 -13 128 l-5 32 -121 0 -120 0 6 -182 c4 -99 7 -453 7 -785 l0 -603 135 0 135 0 0 478 c0 262 5 504 10 537 23 142 136 290 257 335 65 24 161 26 226 4 59 -20 126 -79 160 -141 54 -101 57 -132 57 -695 l0 -518 140 0 140 0 0 518 c0 570 1 578 62 675 43 67 120 132 186 157 46 18 73 21 137 18 158 -8 253 -96 302 -280 14 -54 17 -139 20 -575 l4 -513 135 0 135 0 -3 558 c-5 617 -4 606 -74 760 -61 134 -195 243 -335 273 -74 16 -231 6 -301 -19 -111 -40 -235 -139 -296 -237 l-30 -47 -31 59 c-60 112 -161 197 -280 233 -76 24 -209 26 -291 4z"
       id="path22"
       style="fill:#ffffff;fill-opacity:1" />
    <path
       d="M6937 1624 c-111 -20 -254 -71 -301 -106 -18 -14 -18 -17 9 -99 15 -46 29 -87 32 -91 2 -4 22 4 46 18 64 37 190 74 285 83 272 28 419 -77 438 -313 l7 -72 -164 -12 c-322 -25 -505 -89 -644 -227 -96 -95 -136 -199 -137 -350 0 -134 47 -242 144 -331 187 -172 554 -147 753 52 l62 62 12 -82 c19 -128 4 -116 148 -116 l125 0 -6 32 c-4 18 -11 269 -15 558 -7 494 -9 530 -30 605 -30 111 -64 176 -128 245 -65 71 -161 123 -268 145 -87 18 -264 18 -368 -1z m521 -953 c-3 -165 -4 -168 -36 -233 -119 -242 -473 -303 -597 -104 -28 46 -30 55 -30 150 0 119 15 156 90 225 84 78 213 118 409 129 66 4 132 5 145 3 l23 -4 -4 -166z"
       id="path24"
       style="fill:#ffffff;fill-opacity:1" />
    <path
       d="M10505 1630 c-182 -36 -342 -142 -442 -293 -189 -284 -201 -725 -27 -1003 133 -214 358 -324 662 -324 169 0 356 32 467 80 l42 18 -26 100 -25 100 -63 -24 c-138 -52 -401 -71 -528 -39 -200 51 -330 192 -370 399 -8 43 -15 91 -15 107 l0 29 555 0 554 0 3 63 c8 171 -21 325 -89 466 -104 217 -299 333 -557 330 -56 -1 -119 -5 -141 -9z m299 -229 c35 -17 81 -50 101 -72 66 -74 115 -205 115 -310 l0 -39 -415 0 -415 0 0 23 c1 79 68 230 136 306 87 97 176 132 321 127 80 -3 102 -8 157 -35z"
       id="path26"
       style="fill:#ffffff;fill-opacity:1" />
  </g>
</svg>
