<?xml version="1.0" encoding="UTF-8" standalone="no"?>
<svg
   xmlns:dc="http://purl.org/dc/elements/1.1/"
   xmlns:cc="http://creativecommons.org/ns#"
   xmlns:rdf="http://www.w3.org/1999/02/22-rdf-syntax-ns#"
   xmlns:svg="http://www.w3.org/2000/svg"
   xmlns="http://www.w3.org/2000/svg"
   xmlns:sodipodi="http://sodipodi.sourceforge.net/DTD/sodipodi-0.dtd"
   xmlns:inkscape="http://www.inkscape.org/namespaces/inkscape"
   version="1.0"
   width="6512.4038pt"
   height="938pt"
   viewBox="0 0 6512.4038 938"
   preserveAspectRatio="xMidYMid meet"
   id="svg30"
   sodipodi:docname="logo+marcaNS-blanco.svg"
   inkscape:version="0.92.1 r15371">
  <defs
     id="defs34" />
  <sodipodi:namedview
     pagecolor="#ffffff"
     bordercolor="#666666"
     borderopacity="1"
     objecttolerance="10"
     gridtolerance="10"
     guidetolerance="10"
     inkscape:pageopacity="0"
     inkscape:pageshadow="2"
     inkscape:window-width="1366"
     inkscape:window-height="712"
     id="namedview32"
     showgrid="false"
     inkscape:zoom="0.2050985"
     inkscape:cx="1166.1996"
     inkscape:cy="263.28863"
     inkscape:window-x="0"
     inkscape:window-y="19"
     inkscape:window-maximized="1"
     inkscape:current-layer="g28"
     fit-margin-top="0"
     fit-margin-left="0"
     fit-margin-right="0"
     fit-margin-bottom="0" />
  <metadata
     id="metadata2">
Created by potrace 1.15, written by Peter Selinger 2001-2017
<rdf:RDF>
  <cc:Work
     rdf:about="">
    <dc:format>image/svg+xml</dc:format>
    <dc:type
       rdf:resource="http://purl.org/dc/dcmitype/StillImage" />
    <dc:title></dc:title>
  </cc:Work>
</rdf:RDF>
</metadata>
  <g
     transform="matrix(0.1,0,0,-0.1,-3.0000001,1254)"
     id="g28"
     style="fill:#000000;stroke:none">
    <path
       d="M 30.000001,7850 V 3160 H 4730 9430 v 4690 4690 H 4730 30.000001 Z M 3658,10488 l 3,-138 h 134 135 v -135 -134 l 138,-3 137,-3 3,-137 3,-138 h 134 135 v -135 -135 h 135 134 l 3,-137 3,-138 138,-3 137,-3 v -134 -135 h 135 134 l 3,-137 3,-138 138,-3 137,-3 v -134 -135 h 135 135 v 1100 1100 l 413,-2 412,-3 V 8840 7055 l -412,-3 -413,-2 v 140 140 h -140 -140 v 135 135 h -135 -135 v 140 140 h -135 -135 v 135 135 h -140 -140 v 140 140 h -135 -135 v 135 135 h -140 -140 v 135 135 h -135 -135 v 140 140 h -135 -135 l -2,-1097 -3,-1098 -412,-3 -413,-2 v 1790 1790 l 413,-2 412,-3 z m 2,-3983 v -275 h 270 270 v 140 140 h 275 275 v -275 -275 h 140 140 V 5685 5410 H 3930 2830 v 685 685 h 415 415 z m 3020,-410 v -685 h -555 -555 v 275 275 h -135 -135 v 270 270 h -135 -135 v 140 140 h 825 825 z"
       id="path4"
       style="fill:#ffffff;fill-opacity:1"
       inkscape:connector-curvature="0" />
    <path
       d="m 60615.203,11691.62 c -554.747,-101.431 -979.416,-361.346 -1248.842,-767.039 -240.884,-361.332 -393.035,-903.336 -393.035,-1407.306 v -171.16 h -332.859 -332.701 v -570.532 -570.53 h 332.701 332.859 V 6255.7447 4306.4323 h 776.603 776.517 V 6255.7447 8205.053 h 507.147 507.085 l -6.304,564.196 -9.524,561.02 -503.971,9.504 -500.801,9.512 12.722,291.605 c 18.983,424.726 161.633,690.973 427.836,801.911 114.147,50.713 500.834,57.053 681.519,15.848 l 114.1,-25.358 19.032,462.766 c 12.675,253.552 28.501,519.807 38.008,592.699 l 15.891,129.963 -183.848,38.049 c -240.912,50.702 -839.949,69.718 -1030.135,34.852 z"
       id="path6"
       style="fill:#ffffff;fill-opacity:1;stroke-width:3.16961265"
       inkscape:connector-curvature="0" />
    <path
       d="M 39860.513,10122.669 V 8645.631 l -215.446,215.535 c -377.171,377.19 -827.25,538.832 -1426.323,507.134 -881.122,-44.37 -1578.548,-564.188 -1908.181,-1419.986 -174.252,-453.253 -202.76,-627.5794 -202.76,-1217.1267 3.144,-633.9215 53.837,-871.6449 278.91,-1331.2357 275.74,-554.683 659.282,-900.1711 1223.413,-1099.8571 250.353,-88.7406 801.955,-110.9355 1090.306,-44.3733 453.322,107.762 868.594,393.0301 1103.081,757.5382 l 104.636,164.8177 38.009,-427.8973 c 19.067,-234.5518 38.032,-431.0677 38.032,-434.2332 3.197,-6.346 183.868,-9.5143 402.562,-9.5143 h 399.365 l -18.997,101.4274 c -12.722,57.057 -31.703,1698.9123 -41.196,3648.2243 l -15.889,3540.451 h -424.708 -424.814 z m -786.022,-1578.465 c 437.426,-215.535 697.315,-592.72 754.448,-1103.0232 41.131,-342.322 41.131,-890.6639 0,-1229.8078 -95.153,-830.4398 -782.925,-1391.4595 -1562.651,-1271.0091 -602.267,88.7396 -1020.62,510.3002 -1198.106,1201.275 -72.897,278.9233 -85.575,833.61 -28.444,1150.5703 104.497,576.8668 408.769,1033.2898 830.316,1248.8248 221.876,110.937 355.032,136.294 678.325,129.954 263.048,-9.511 313.775,-19.017 526.112,-126.784 z"
       id="path8"
       style="fill:#ffffff;fill-opacity:1;stroke-width:3.16961265"
       inkscape:connector-curvature="0" />
    <path
       d="m 19533.857,11209.858 c -76.028,-126.792 -275.726,-456.441 -443.776,-729.023 l -307.398,-500.798 h 313.812 313.682 l 564.248,659.277 c 307.461,361.337 589.554,687.801 624.477,729.013 l 63.329,69.727 h -494.411 -494.486 z"
       id="path10"
       style="fill:#ffffff;fill-opacity:1;stroke-width:3.16961265"
       inkscape:connector-curvature="0" />
    <path
       d="m 49195.094,11298.603 c -503.976,-82.413 -893.834,-234.556 -1232.988,-475.452 -735.323,-522.981 -1007.955,-1492.882 -643.391,-2278.947 266.18,-567.359 824.078,-985.754 1797.147,-1347.0844 877.967,-326.4696 1131.545,-557.8513 1103.063,-1001.5991 -15.909,-275.7543 -123.649,-431.0685 -386.731,-557.8491 -491.329,-240.8918 -1331.252,-183.8364 -2152.18,148.9715 -152.108,60.2188 -282.059,107.7583 -288.457,101.427 -12.607,-15.8434 -304.246,-1191.7766 -304.246,-1229.8077 0,-47.5444 453.168,-221.8774 798.74,-304.2806 478.591,-110.939 928.672,-155.3151 1388.273,-129.9547 1286.864,66.5555 2117.278,576.8702 2443.806,1499.2255 91.886,259.9075 117.265,808.2465 47.517,1096.6835 -98.253,412.0499 -316.929,754.3651 -659.284,1023.7831 -310.615,240.891 -538.81,361.334 -1103.043,586.38 -839.953,329.638 -1093.446,488.12 -1207.595,741.687 -72.9,155.313 -75.999,269.417 -9.52,421.567 120.464,294.765 408.889,446.911 887.506,472.263 374.042,22.188 849.442,-53.881 1232.992,-196.515 155.28,-60.225 285.232,-104.6 288.415,-101.429 3.173,3.171 79.223,275.751 171.161,605.398 161.676,580.037 167.981,599.049 107.726,643.429 -82.403,60.221 -491.234,187.007 -808.204,247.234 -361.37,69.728 -1147.418,88.741 -1470.707,34.87 z"
       id="path12"
       style="fill:#ffffff;fill-opacity:1;stroke-width:3.16961265"
       inkscape:connector-curvature="0" />
    <path
       d="M 10510,7777.161 V 4306.4323 h 412.018 412.028 v 2164.8458 c 0,1188.6019 -15.8,2488.1359 -31.677,2887.5139 -15.764,402.546 -25.312,735.352 -15.764,741.687 6.276,6.341 63.362,-91.917 129.953,-218.704 329.605,-656.106 656.069,-1207.615 2114.048,-3537.2821 l 1274.138,-2038.0606 h 453.33 450.105 v 3470.7287 3473.897 l -418.325,-9.515 -421.634,-9.511 -9.511,-1204.451 c -9.492,-1213.96 41.232,-3733.8016 85.558,-4231.4274 12.7,-148.9723 22.227,-272.5908 19.032,-278.9227 -3.219,-3.176 -139.472,237.7168 -304.238,538.8272 -431.086,801.9143 -770.231,1362.9343 -2041.254,3381.9749 l -1141.092,1809.85 H 10994.832 10510 Z"
       id="path14"
       style="fill:#ffffff;fill-opacity:1;stroke-width:3.16961265"
       inkscape:connector-curvature="0" />
    <path
       d="m 63236.459,10474.494 -697.279,-196.513 -9.498,-465.934 -9.579,-465.932 h -329.662 -332.719 v -570.532 -570.53 h 329.611 329.639 l 12.71,-1337.5775 c 15.804,-1445.3371 18.991,-1496.0556 199.658,-1885.9163 218.702,-481.7787 760.686,-770.2053 1442.155,-770.2053 263.052,3.1601 637.106,44.3673 827.293,95.0784 l 123.601,34.866 v 580.0484 580.0311 L 64814.9,5488.699 c -278.876,-12.6764 -326.454,-6.333 -453.236,60.225 -107.778,53.8792 -161.643,110.9319 -221.806,231.3773 l -79.363,158.4817 -9.442,1134.7195 -9.525,1131.5505 h 554.709 557.801 v 570.53 570.532 h -554.634 -554.709 v 665.62 c 0,614.903 -3.167,665.623 -53.906,662.448 -31.624,-3.171 -370.798,-91.916 -754.33,-199.689 z"
       id="path16"
       style="fill:#ffffff;fill-opacity:1;stroke-width:3.16961265"
       inkscape:connector-curvature="0" />
    <path
       d="m 55074.711,9450.712 c -453.258,-22.188 -855.755,-129.954 -1245.613,-332.807 -358.227,-183.84 -748.069,-573.701 -931.885,-928.698 -212.4,-412.046 -297.928,-748.0262 -317.038,-1267.8396 -12.583,-367.6811 -6.294,-497.6323 47.64,-748.0231 193.314,-928.7046 786.018,-1575.3059 1702.088,-1854.2322 263.024,-79.2426 329.595,-88.743 824.031,-88.743 459.617,0 576.846,9.5004 792.421,69.7254 538.847,148.9721 1049.14,481.7794 1337.554,871.643 332.87,453.2574 481.81,903.3404 507.159,1534.0948 38.069,896.9997 -174.289,1502.3957 -716.332,2038.0587 -405.67,402.533 -903.341,637.09 -1461.185,681.471 -114.098,9.501 -240.871,22.178 -285.254,25.35 -44.403,3.167 -158.434,3.167 -253.586,0 z m 510.318,-1201.289 c 259.872,-129.95 459.562,-424.722 554.747,-827.2585 66.493,-269.4191 72.841,-874.8075 15.772,-1134.7283 -139.439,-621.2355 -478.578,-966.7262 -950.892,-966.7262 -633.947,0 -1026.895,573.6912 -1023.795,1489.709 0,871.649 320.158,1435.844 859.039,1518.25 202.827,31.701 373.951,6.342 545.129,-79.246 z"
       id="path18"
       style="fill:#ffffff;fill-opacity:1;stroke-width:3.16961265"
       inkscape:connector-curvature="0" />
    <path
       d="m 18811.181,9330.269 c -453.204,-88.751 -855.744,-304.284 -1188.555,-633.917 -513.479,-510.315 -782.813,-1290.0412 -729.048,-2123.6461 69.743,-1125.213 656.227,-1936.6328 1629.191,-2259.932 218.676,-72.9044 294.83,-82.4048 719.475,-82.4048 561.057,-3.1709 738.527,34.8664 1188.624,253.5649 253.549,126.7838 345.516,193.344 570.517,421.5548 307.509,313.7923 443.854,526.1583 573.802,903.3432 123.557,354.9967 167.909,709.9933 145.715,1191.7683 -34.842,843.1187 -354.95,1505.5697 -934.992,1933.4647 -513.525,380.345 -1283.76,532.493 -1974.729,396.204 z m 1096.733,-741.693 c 564.131,-278.924 906.464,-941.371 906.464,-1762.3013 0,-190.1773 -12.671,-418.3859 -31.661,-507.1369 -177.439,-912.8511 -798.767,-1486.5518 -1549.953,-1432.6692 -316.94,22.1921 -437.375,60.2278 -668.803,215.5391 -313.847,209.197 -561.012,583.2122 -690.969,1049.1415 -76.045,282.097 -76.045,1007.9344 3.189,1293.2066 91.92,339.1412 256.716,649.7642 456.441,852.6182 307.406,313.791 583.202,418.393 1058.6,402.54 272.599,-9.507 332.796,-22.186 516.692,-110.938 z"
       id="path20"
       style="fill:#ffffff;fill-opacity:1;stroke-width:3.16961265"
       inkscape:connector-curvature="0" />
    <path
       d="m 24804.864,9327.099 c -294.751,-79.242 -510.254,-202.853 -732.106,-421.562 -114.088,-114.109 -244.037,-259.906 -288.44,-320.136 l -79.157,-107.759 -22.271,297.941 c -12.738,164.815 -31.703,348.663 -41.22,405.711 l -15.798,101.43 h -383.551 -380.367 l 19.029,-576.871 c 12.674,-313.793 22.195,-1435.8333 22.195,-2488.1439 V 4306.4323 h 427.888 427.941 v 1515.0734 c 0,830.443 15.746,1597.4867 31.589,1702.0803 72.955,450.087 431.112,919.189 814.718,1061.815 205.95,76.076 510.262,82.415 716.262,12.686 187.031,-63.394 399.377,-250.401 507.165,-446.912 171.175,-320.135 180.676,-418.393 180.676,-2202.8839 V 4306.4323 h 443.713 443.753 v 1641.8588 c 0,1806.6799 3.151,1832.0419 196.489,2139.4869 136.417,212.367 380.368,418.392 589.577,497.623 145.827,57.055 231.377,66.57 434.258,57.055 500.798,-25.351 801.921,-304.275 957.182,-887.485 44.413,-171.162 53.916,-440.5802 63.443,-1822.5308 l 12.558,-1626.0079 h 427.984 427.912 l -9.524,1768.6456 c -15.841,1955.6501 -12.71,1920.7821 -234.555,2408.9031 -193.296,424.726 -618.096,770.216 -1061.92,865.304 -234.419,50.713 -732.062,19.015 -953.932,-60.223 -351.878,-126.784 -744.899,-440.578 -938.209,-751.199 l -95.099,-148.967 -98.308,187.006 c -190.144,354.997 -510.286,624.41 -887.444,738.508 -240.87,76.077 -662.512,82.418 -922.431,12.689 z"
       id="path22"
       style="fill:#ffffff;fill-opacity:1;stroke-width:3.16961265"
       inkscape:connector-curvature="0" />
    <path
       d="m 32465.917,9327.099 c -351.884,-63.396 -805.124,-225.045 -954.094,-335.98 -57.086,-44.375 -57.086,-53.88 28.438,-313.791 47.67,-145.804 92.028,-275.759 101.507,-288.432 6.374,-12.681 69.721,12.673 145.867,57.05 202.723,117.278 602.238,234.55 903.297,263.077 862.135,88.747 1328.105,-244.061 1388.33,-992.086 l 22.13,-228.213 -519.819,-38.038 c -1020.592,-79.2439 -1600.625,-282.0967 -2041.312,-719.4987 -304.178,-301.1136 -430.939,-630.7579 -434.142,-1109.3625 0,-424.7307 149.022,-767.0477 456.455,-1049.1427 592.731,-545.1751 1755.941,-465.9341 2386.725,164.8171 l 196.494,196.5201 38.002,-259.9112 c 60.211,-405.7152 12.696,-367.6758 469.127,-367.6758 h 396.234 l -19.08,101.4274 c -12.629,57.057 -34.811,852.6267 -47.493,1768.6418 -22.311,1565.7905 -28.586,1679.8915 -95.099,1917.6185 -95.091,351.826 -202.891,557.851 -405.757,776.554 -205.994,225.041 -510.3,389.86 -849.401,459.595 -275.754,57.051 -836.792,57.051 -1166.409,-3.17 z m 1651.342,-3020.6438 c -9.485,-522.9862 -12.708,-532.4897 -114.117,-738.5158 -377.154,-767.0423 -1499.249,-960.3937 -1892.248,-329.6421 -88.753,145.803 -95.074,174.3308 -95.074,475.4442 0,377.1843 47.515,494.4626 285.238,713.1653 266.279,247.2282 675.129,374.0127 1296.398,408.875 209.205,12.6755 418.392,15.8502 459.602,9.5095 l 72.896,-12.678 z"
       id="path24"
       style="fill:#ffffff;fill-opacity:1;stroke-width:3.16961265"
       inkscape:connector-curvature="0" />
    <path
       d="m 43775.064,9346.115 c -576.86,-114.105 -1084.024,-450.086 -1401.003,-928.704 -599.019,-900.159 -637.034,-2297.9624 -85.556,-3179.1137 421.541,-678.293 1134.71,-1026.9434 2098.31,-1026.9434 535.655,0 1128.377,101.42 1480.202,253.5628 l 133.077,57.0535 -82.341,316.9604 -79.292,316.9619 -199.636,-76.0707 c -437.448,-164.8207 -1271.017,-225.0447 -1673.563,-123.6129 -633.959,161.642 -1045.961,608.5602 -1172.775,1264.6675 -25.335,136.2977 -47.59,288.4362 -47.59,339.1516 v 91.9207 h 1759.137 1755.988 l 9.549,199.6833 c 25.296,542.0046 -66.602,1030.122 -282.116,1477.037 -329.617,687.804 -947.651,1055.482 -1765.481,1045.973 -177.538,-3.174 -377.212,-15.85 -446.91,-28.527 z m 947.722,-725.84 c 110.919,-53.888 256.74,-158.483 320.102,-228.215 209.209,-234.549 364.531,-649.768 364.531,-982.5801 v -123.6151 h -1315.411 -1315.359 v 72.903 c 3.203,250.4032 215.518,729.0102 431.087,969.9012 275.7,307.454 557.812,418.388 1017.432,402.541 253.561,-9.51 323.258,-25.357 497.618,-110.935 z"
       id="path26"
       style="fill:#ffffff;fill-opacity:1;stroke-width:3.16961265"
       inkscape:connector-curvature="0" />
  </g>
</svg>
